/* XPM */
static char *bfb72c959fa54378c0fa7462e4ab8f62k5pfNanAfzcFnkFT[] = {
/* columns rows colors chars-per-pixel */
"64 64 37 1 ",
"  c None",
". c black",
"X c #010000",
"o c #000100",
"O c #010100",
"+ c #000001",
"@ c #343332",
"# c #343233",
"$ c #353233",
"% c #343333",
"& c #353333",
"* c #727272",
"= c #737272",
"- c #737372",
"; c #CF0018",
": c #CF0019",
"> c #CF0119",
", c #EEEE00",
"< c #EFEE00",
"1 c #EEEF00",
"2 c #EFEF00",
"3 c #EEEE01",
"4 c #EFEE01",
"5 c #EEEF01",
"6 c #EFEF01",
"7 c #00EAD2",
"8 c #01EAD2",
"9 c #00EAD3",
"0 c #01EAD3",
"q c #00EBD3",
"w c #FFFEFE",
"e c #FEFFFE",
"r c #FFFFFE",
"t c #FEFEFF",
"y c #FFFEFF",
"u c #FEFFFF",
"i c white",
/* pixels */
"                        ,,,,                                    ",
"                        ,,,,                                    ",
"                      ,,,,,,,,,,                                ",
"                      ,,,,,,,,,,                                ",
"                    ,,,,9999,,,,,,                              ",
"                    ,,,,9999,,,,,,                              ",
"                    ,,,,999999,,,,,,                            ",
"                    ,,,,999999,,,,,,                            ",
"                  ,,<,,,,,999999,,,,,,                          ",
"                  ,,<,,,,,999999,,,,,,                          ",
"                  ,,<<,,,,,,999999,,,,,,                        ",
"                  ,,,,,,,,,,999999,,,,,,                        ",
"                ,,,,,,,,,,,,,,9999,,,,,,,,                      ",
"                ,,,,<<,,,,,,,,9999,,,,,,,,                      ",
"                ,,,,,,,,,,,,,,,,,,,,,,,,,,,,                    ",
"                ,,,,,,,,,,,,,,,,,,,,,,,,,,,,                    ",
"              ,,,,,,,,,,,,,,,,,,,,,,,,<,,,,,,,                  ",
"              ,,,,,,,,,,,,,,,,,,,,,,,,<<,,,,,<                  ",
"            ,,,,<<,,,,,,,,<,,,,,,,,,,,,,,,,,<<,,,,              ",
"            ,,,,<,,,,<,,,,<,,,,,,,,,,,,,<,,,<,,,,,              ",
"          ,,,,,,<,,,,<,,,,,,,,,,,,,,,,,,,,,,,,,,,,,,            ",
"          ,,,<,,,,,,<<,,,,,,,,,,,<,,,,,,,,,,,,,,,,,,            ",
"          ,,<<,,,,,,,,,,,,,,,,,,,,,,,,,,,,,,<,,,,,,,,,,,        ",
"          ,,,,,,,,,,,,,,,,,<,,,,,,,,,,,,,,,,,,,,,,,,,,,,        ",
"        ,,,,,,,,,,,,,,,,,<,,,,,<,,,,,,,,,,,,,,,,,,,,,,,,,,,,    ",
"        ,,,,,,,,,,,,,,,,<<,,,,<<,,,,,,,,,,,<,,,,,,,,,,,,,,,,    ",
"      ,,,,,,,,,,,,,,,,,,<,,,,,,,,,,,,,,,,,,,,,,,,,9999,,,,,,    ",
"      ,,,,,,,,,,,,,,,,,,,,,,,,,,,,,,,,,,,,,,,,,,,,9999,,,,,,    ",
"  ,,,,,,,,,,,,,,,,,,iiiiii**iiiiiiii**iiii,,,,,,,,999999,,,,    ",
"  ,,,,,,,,,,,,,,,,,,iiiiii**iiiiiiii**iiii,,,,,,,,999999,,,,    ",
",,,,,,,,,,,,,,,,,,,,iiii..ii**iiii..ii**ii,,,,&&,,,,999999      ",
",,,,,,,,,,,,,,,,,,,,iiii..ii**iiii..ii**ii,,,,&&,,,,999999      ",
"9999,,,,,,,,,,,,&&,,,,ii..**iiiiii..**iiiiii,,,,&&,,,,999999    ",
"9999,,,,,,,,,,,,&&,,,,ii..**iiiiii..**iiiiii,,,,&&,,,,999999    ",
"999999,,,,,,,,&&,,,,,,iiii99iiiiiiii99iiiiii,,,,,,&&,,  9999    ",
"999999,,,,,,,,&&,,,,,,iiii99iiiiiiii99iiiiii,,,,,,&&,,  9999    ",
"  999999  ,,,,&&,,,,,,iiiiiiiiiiiiiiiiiiiiii,,,,,,,,&&          ",
"  999999  ,,,,&&,,,,,,iiiiiiiiiiiiiiiiiiiiii,,,,,,,,&&          ",
"    999999    &&,,,,,,iiiiii>>>>>>>>iiiiiiii,,,,,,&&            ",
"    999999    &&,,,,,,iiiiii>>>>>>>>iiiiiiii,,,,,,&&            ",
"      9999    &&,,,,,,&&iiiiii>>>>iiiiii&&&&iiiiiiiiii          ",
"      9999    &&,,,,,,&&iiiiii>>>>iiiiii&&&&iiiiiiiiii          ",
"              &&&&,,,,  &&&&iiiiiiiiii&&iiiiiiiiiiii            ",
"              &&&&,,,,  &&&&iiiiiiiiii&&iiiiiiiiiiii            ",
"            iiiiiiiiiiiiiiii&&&&&&&&&&iiiiiiiiiiii              ",
"            iiiiiiiiiiiiiiii&&&&&&&&&&iiiiiiiiiiii              ",
"              iiiiiiiiiiiiiiiiiiiiiiiiiiiiiiii                  ",
"              iiiiiiiiiiiiiiiiiiiiiiiiiiiiiiii                  ",
"                  iiiiiiiiiiiiiiiiiiiiiiii,,                    ",
"                  iiiiiiiiiiiiiiiiiiiiiiii,,                    ",
"                  ,,,,iiiiiiiiiiiiiiiiii,,,,,,                  ",
"                  ,,,,iiiiiiiiiiiiiiiiii<,<,,,                  ",
"                ,,,,,,ii..iiiiiiiiii..ii,,,,,,,,,,              ",
"                ,,,,,,ii..iiiiiiiiii..ii,,,,,,,,,,              ",
"                ,,,,,,,,ii..iiiiii..iiii,,,,,,,,,,,,            ",
"                ,,,,,,,,ii..iiiiii..iiii,,,,,,,,,,,,            ",
"              ,,,,,,,,,,iiii......iiiiii    ,,,,,,,,,,,,        ",
"              ,,,,,,,,,,iiii......iiiiii    ,,,,,,,,,,,,        ",
"            ,,,,,,,,,,  iiiiiiiiiiiiii        ,,,,,,,,,,,,      ",
"            ,,,,,,,,,,  iiiiiiiiiiiiii        ,,,,,,,,,,,,      ",
"        ,,,,,,,,,,        iiiiiiiiiiii            ,,,,,,,,,,    ",
"        ,,,,,,,,,,        iiiiiiiiiiii            ,,,,,,,,,,    ",
"      ,,,,,,,,,,            ii    ii                ,,,,,,,,,,  ",
"      ,,,,,,,,,,            ii    ii                ,,,,,,,,,,  "
};
