/* XPM */
static char *b0203c339df04a2ea00ffbaa590e06bbWA266gabNxrk201t[] = {
/* columns rows colors chars-per-pixel */
"64 64 3 1 ",
"  c #062A01",
". c #288807",
"X c #64D90B",
/* pixels */
"................................................................",
"................................................................",
"..............................XX................................",
"..............................XX................................",
"....XX............................................  ............",
"....XX............................................  ............",
"....XX....XX........  ......................................XX..",
"....XX....XX........  ......................................XX..",
"..................................................XX............",
"..................................................XX............",
"........................XX........XX............................",
"........................XX........XX............................",
"..................................XXXX........XXXX..............",
"..................................XXXX........XXXX..............",
"..........XX................................................  ..",
"..........XX................................................  ..",
"..........XX....................................................",
"..........XX....................................................",
"............XX........................XX........................",
"............XX........................XX........................",
"..................XX............................................",
"..................XX............................................",
"................................................XXXX............",
"................................................XXXX............",
"................................................................",
"................................................................",
"........................................XX......................",
"........................................XX......................",
"......XX........  ..........XX........................  ........",
"......XX........  ..........XX........................  ........",
"................................................................",
"................................................................",
"................................................................",
"................................................................",
"........................................................XX......",
"........................................................XX......",
"..  ..............XX..............................XX............",
"..  ..............XX..............................XX............",
"..................XX............................................",
"..................XX............................................",
"................................................................",
"................................................................",
"........................XX......XX......  ......................",
"........................XX......XX......  ......................",
"..........  ....................XXXX............................",
"..........  ....................XXXX............................",
"..................................................XXXXXX........",
"..................................................XXXXXX........",
"....................................XX..........................",
"....................................XX..........................",
"................XX........................................  ....",
"................XX........................................  ....",
"............................................  ..................",
"............................................  ..................",
"..XXXX..........................................................",
"..XXXX..........................................................",
"....XX........................XXXX..............................",
"....XX........................XXXX..............................",
"......................XX..........................XXXXXX........",
"......................XX..........................XXXXXX........",
"..........  ..........XX..............................XX........",
"..........  ..........XX..............................XX........",
"................................................................",
"................................................................"
};
