/* XPM */
static char *edd2a012995d4a72ee840373ddb12182kZG160UDwusqknoX[] = {
/* columns rows colors chars-per-pixel */
"64 64 67 1 ",
"  c None",
". c black",
"X c #010000",
"o c #000100",
"O c #3A363A",
"+ c #3B363A",
"@ c #3A373A",
"# c #3B373A",
"$ c #3A363B",
"% c #3B363B",
"& c #3A373B",
"* c #3B373B",
"= c #FF5000",
"- c #FE5100",
"; c #FF5100",
": c #FF5101",
"> c #FF007E",
", c #FF007F",
"< c #00EE00",
"1 c #00EF00",
"2 c #01EF00",
"3 c #F3FE00",
"4 c #F3FF00",
"5 c #F3FF01",
"6 c #FA9E76",
"7 c #FA9F76",
"8 c #FA9E77",
"9 c #FB9E77",
"0 c #FA9F77",
"q c #FB9F77",
"w c #0022FE",
"e c #0022FF",
"r c #006DEE",
"t c #006DEF",
"y c #724CF8",
"u c #734CF8",
"i c #734DF8",
"p c #734CF9",
"a c #F400FE",
"s c #F500FE",
"d c #F401FE",
"f c #F400FF",
"g c #F500FF",
"h c #F401FF",
"j c #F501FF",
"k c #FE00FE",
"l c #FF00FE",
"z c #FE01FE",
"x c #FE00FF",
"c c magenta",
"v c #FE01FF",
"b c #FF01FF",
"n c #FF68DD",
"m c #E2D5E2",
"M c #E3D5E2",
"N c #E2D4E3",
"B c #E3D4E3",
"V c #E2D5E3",
"C c #E3D5E3",
"Z c #FEFEFE",
"A c #FFFEFE",
"S c #FEFFFE",
"D c #FFFFFE",
"F c #FEFEFF",
"G c #FFFEFF",
"H c #FEFFFF",
"J c white",
/* pixels */
"        cccccccccccccccc                    uuuuuuuuuuuu        ",
"        cccccccccccccccc                    uuuuuuuuuuuu        ",
"      cccccccccccccccccccccc            uuuuuuuuuuuuuuuuuuuu    ",
"      cccccccccccccccccccccc            uuuuuuuuuuuuuuuuuuuu    ",
"      cccccccccccccccccccccccc          uuuuuu00uuuu00uuuuuu    ",
"      cccccccccccccccccccccccc          uuuuuu00uuuu00uuuuuu    ",
"      cccc00000000cccccccccccccccc      uuuu000000000000uuuu    ",
"      cccc00000000cccccccccccccccc      uuuu000000000000uuuu    ",
"        DDee0000eeDDcccccccccccccccc    uuuuDD11000011DDuuuu    ",
"        DDee0000eeDDcccccccccccccccc    uuuuDD11000011DDuuuu    ",
"        000000000000cccccccccccccccccc      000000000000        ",
"        000000000000cccccccccccccccccc      000000000000        ",
"        0000....0000cccccccccccccccccccc    0000....0000        ",
"        0000....0000cccccccccccccccccccc    0000....0000        ",
"            0000        cccccccccccccccc        0000            ",
"            0000        cccccccccccccccc        0000            ",
"          DDDDDDDD          cccccccccccc      DDDDDDDD          ",
"          DDDDDDDD          cccccccccccc      DDDDDDDD          ",
"        DDDDDDDDDDDD          cccccccc      DDDDDDDDDDDD        ",
"        DDDDDDDDDDDD          cccccccc      DDDDDDDDDDDD        ",
"    DDDDDDDDDDDDDDDDDDDD        cc  cc  DDDDDDDDDDDDDDDDDDDD    ",
"    DDDDDDDDDDDDDDDDDDDD        cc  cc  DDDDDDDDDDDDDDDDDDDD    ",
"  DDDDDDDDffffffffDDDDDDDD            DDDDDDDDffffffffDDDDDDDD  ",
"  DDDDDDDDffffffffDDDDDDDD            DDDDDDDDffffffffDDDDDDDD  ",
"  DDDDDDDDffDDDDffDDDDDDDD            DDDDDDDDffDDDDffDDDDDDDD  ",
"  DDDDDDDDffDDDDffDDDDDDDD            DDDDDDDDffDDDDffDDDDDDDD  ",
"DDDD%%DDDDffffffDDDDDD%%DDDD        DDDD%%DDDDffffffDDDDDD%%DDDD",
"DDDD%%DDDDffffffDDDDDD%%DDDD        DDDD%%DDDDffffffDDDDDD%%DDDD",
"DDDD%%DDDDffDDffDDDDDD%%DDDD        DDDD%%DDDDffDDffDDDDDD%%DDDD",
"DDDD%%DDDDffDDffDDDDDD%%DDDD        DDDD%%DDDDffDDffDDDDDD%%DDDD",
"DDDD%%DDDDffDDDDffDDDD%%DDDD        DDDD%%DDDDffDDDDffDDDD%%DDDD",
"DDDD%%DDDDffDDDDffDDDD%%DDDD        DDDD%%DDDDffDDDDffDDDD%%DDDD",
"DDDD%%DDDDDDDDDDDDDDDD%%DDDD        DDDD%%DDDDDDDDDDDDDDDD%%DDDD",
"DDDD%%DDDDDDDDDDDDDDDD%%DDDD        DDDD%%DDDDDDDDDDDDDDDD%%DDDD",
"DDDD  %%DDDDDDDDDDDD%%  DDDD        DDDD  %%DDDDDDDDDDDD%%  DDDD",
"DDDD  %%DDDDDDDDDDDD%%  DDDD        DDDD  %%DDDDDDDDDDDD%%  DDDD",
"%%%%    %%%%%%%%%%%%    %%%%        %%%%    %%%%%%%%%%%%    %%%%",
"%%%%    %%%%%%%%%%%%    %%%%        %%%%    %%%%%%%%%%%%    %%%%",
"  %%    DDDD    DDDD    %%  ..4444..  %%    DDDD    DDDD    %%  ",
"  %%    DDDD    DDDD    %%  ..4444..  %%    DDDD    DDDD    %%  ",
"        DDDD    DDDD      ..nn4444nn..      DDDD    DDDD        ",
"        DDDD    DDDD      ..nn4444nn..      DDDD    DDDD        ",
"        DDDD    DDDD    BBBBBB4444BBBBBB    DDDD    DDDD        ",
"        DDDD    DDDD    BBBBBB4444BBBBBB    DDDD    DDDD        ",
"        DDDD    DDDD  BBBBDDrrBBBBrrDDBBBB  DDDD    DDDD        ",
"        DDDD    DDDD  BBBBDDrrBBBBrrDDBBBB  DDDD    DDDD        ",
"        DDDD    DDDD    BBBBBBBBBBBBBBBB    DDDD    DDDD        ",
"        DDDD    DDDD    BBBBBBBBBBBBBBBB    DDDD    DDDD        ",
"        DDDD    DDDD  BBBBBB>>>>>>>>BBBBBB  DDDD    DDDD        ",
"        DDDD    DDDD  BBBBBB>>>>>>>>BBBBBB  DDDD    DDDD        ",
"        DDDD    DDDD    BBBBBBBBBBBBBBBB    DDDD    DDDD        ",
"        DDDD    DDDD    BBBBBBBBBBBBBBBB    DDDD    DDDD        ",
"        DDDD    DDDD        BBBBBBBB        DDDD    DDDD        ",
"        DDDD    DDDD        BBBBBBBB        DDDD    DDDD        ",
"      DDDDDD    DDDDDD  BBBBBBBBBBBBBBBB  DDDDDD    DDDDDD      ",
"      DDDDDD    DDDDDD  BBBBBBBBBBBBBBBB  DDDDDD    DDDDDD      ",
"      %%%%%%    %%%%%%BB    BBBBBBBB    BB%%%%%%    %%%%%%      ",
"      %%%%%%    %%%%%%BB    BBBBBBBB    BB%%%%%%    %%%%%%      ",
"    %%%%%%%%    %%%%%%%%    BBBBBBBBBB  %%%%%%%%    %%%%%%%%    ",
"    %%%%%%%%    %%%%%%%%    BBBBBBBBBB  %%%%%%%%    %%%%%%%%    ",
"                            BB    BB  BB                        ",
"                            BB    BB  BB                        ",
"                          ::BB    BB::  ::::                    ",
"                          ::BB    BB::  ::::                    "
};
