/* XPM */
static char *b49ddbc1c5574b1fa1de51ecff67776dQjMLLh8t7GkBfDxT[] = {
/* columns rows colors chars-per-pixel */
"64 64 62 1 ",
"  c None",
". c #4A5454",
"X c #4B5454",
"o c #4A5455",
"O c #4B5455",
"+ c #4A5555",
"@ c #4B5555",
"# c #CA0400",
"$ c #CB0400",
"% c #CA0500",
"& c #CB0500",
"* c #CA0401",
"= c #CB0401",
"- c #CA0501",
"; c #F41600",
": c #F51600",
"> c #F41700",
", c #F51700",
"< c #F41601",
"1 c #F51601",
"2 c #F41701",
"3 c #E05200",
"4 c #E15200",
"5 c #E05300",
"6 c #E15300",
"7 c #E15201",
"8 c #E05301",
"9 c #E15301",
"0 c #FEE200",
"q c #FFE200",
"w c #FEE300",
"e c #FFE300",
"r c #FEE201",
"t c #FEE301",
"y c #003682",
"u c #013682",
"i c #003782",
"p c #013782",
"a c #003683",
"s c #013683",
"d c #003783",
"f c #2DDCC8",
"g c #2CDDC8",
"h c #2DDDC8",
"j c #2CDCC9",
"k c #2DDCC9",
"l c #2CDDC9",
"z c #2DDDC9",
"x c #969C9C",
"c c #979C9C",
"v c #969D9C",
"b c #969C9D",
"n c #979C9D",
"m c #969D9D",
"M c #ACFCDF",
"N c #ADFCDF",
"B c #FFFEFE",
"V c #FEFFFE",
"C c #FFFFFE",
"Z c #FFFEFF",
"A c #FEFFFF",
"S c white",
/* pixels */
"                                                                ",
"                                                                ",
"          yyyyyyyyyyyyyyyyyyyyyyyyyyyyyyyyyyyyyyyyyy            ",
"          yyyyyyyyyyyyyyyyyyyyyyyyyyyyyyyyyyyyyyyyyy            ",
"        yy000000000000000000000000000000000000000000yy          ",
"        yy000000000000000000000000000000000000000000yy          ",
"      yy0000######################################0000yy        ",
"      yy0000######################################0000yy        ",
"    yy006600######################################006600yy      ",
"    yy006600######################################006600yy      ",
"  yy00666600######################################00666600yy    ",
"  yy00666600######################################00666600yy    ",
"  yy66666600######################################0066666600yy  ",
"  yy66666600######################################0066666600yy  ",
"  yy66666600######################################0066666600yy  ",
"  yy66666600######################################0066666600yy  ",
"  yy66666600######################################0066666600yy  ",
"  yy66666600######################################0066666600yy  ",
"  yy66666600######################################0066666600yy  ",
"  yy66666600######################################0066666600yy  ",
"  yy66666600##############;;;;;;;;;;##############0066666600yy  ",
"  yy66666600##############;;;;;;;;;;##############0066666600yy  ",
"  yy6666006600##########;;;;BBBBBB;;;;##########006600666600yy  ",
"  yy6666006600##########;;;;BBBBBB;;;;##########006600666600yy  ",
"  yy660066666600######;;;;BBBB;;BBBB;;;;######00666666006600yy  ",
"  yy660066666600######;;;;BBBB;;BBBB;;;;######00666666006600yy  ",
"  yy00666666666600##;;;;BBBB;;;;;;BBBB;;;;##00666666666600yy    ",
"  yy00666666666600##;;;;BBBB;;;;;;BBBB;;;;##00666666666600yy    ",
"  yy666666666666;;;;;;;;;;;;;;BB;;;;;;;;;;;;;;666666666666yy    ",
"  yy666666666666;;;;;;;;;;;;;;BB;;;;;;;;;;;;;;666666666666yy    ",
"  yyBB66666666;;;;;;;;;;BBBB;;;;;;BBBB;;;;;;;;;;66666666BByy    ",
"  yyBB66666666;;;;;;;;;;BBBB;;;;;;BBBB;;;;;;;;;;66666666BByy    ",
"  yyBBBB6666;;;;;;;;;;;;;;BBBB;;BBBB;;;;;;;;;;;;;;6666BBBByy    ",
"  yyBBBB6666;;;;;;;;;;;;;;BBBB;;BBBB;;;;;;;;;;;;;;6666BBBByy    ",
"  yyBBBBBB66;;;;;;;;;;;;;;;;BBBBBB;;;;;;;;;;;;;;;;66BBBBBByy    ",
"  yyBBBBBB66;;;;;;;;;;;;;;;;BBBBBB;;;;;;;;;;;;;;;;66BBBBBByy    ",
"  yyBBBBBBBBbbbbbbbbbbbbbb;;;;;;;;;;bbbbbbbbbbbbbbBBBBBBBByy    ",
"  yyBBBBBBBBbbbbbbbbbbbbbb;;;;;;;;;;bbbbbbbbbbbbbbBBBBBBBByy    ",
"  yyBBBBBBBBbbbbbbbbbbbbzzzzzzBBzzzzzzbbbbbbbbbbbbBBBBBBBByy    ",
"  yyBBBBBBBBbbbbbbbbbbbbzzzzzzBBzzzzzzbbbbbbbbbbbbBBBBBBBByy    ",
"  yyBBBBBBBBbbbbbbbbbbbbzzzzzzBBzzzzzzbbbbbbbbbbbbBBBBBBBByy    ",
"  yyBBBBBBBBbbbbbbbbbbbbzzzzzzBBzzzzzzbbbbbbbbbbbbBBBBBBBByy    ",
"  yyBBBBBBBBbbbbbbbbbbbbzzzzzzBBzzzzzzbbbbbbbbbbbbBBBBBBBByy    ",
"  yyBBBBBBBBbbbbbbbbbbbbzzzzzzBBzzzzzzbbbbbbbbbbbbBBBBBBBByy    ",
"  yyBBBBBBBBbbbbzzzzbbbbzzzzzzBBzzzzzzbbbbzzzzbbbbBBBBBBBByy    ",
"  yyBBBBBBBBbbbbzzzzbbbbzzzzzzBBzzzzzzbbbbzzzzbbbbBBBBBBBByy    ",
"  yyBBBBBBBBbbbbzzzzbbbbzzzzzzBBzzzzzzbbbbzzzzbbbbBBBBBBBByy    ",
"  yyBBBBBBBBbbbbzzzzbbbbzzzzzzBBzzzzzzbbbbzzzzbbbbBBBBBBBByy    ",
"  yyBBBBBBBBbbbbbbbbbbbbzzzzzzBBzzzzzzbbbbbbbbbbbbBBBBBBBByy    ",
"  yyBBBBBBBBbbbbbbbbbbbbzzzzzzBBzzzzzzbbbbbbbbbbbbBBBBBBBByy    ",
"  yyBBBBBBBBbbbbbbbbbbbbzzzzzzBBzzzzzzbbbbbbbbbbbbBBBBBBBByy    ",
"  yyBBBBBBBBbbbbbbbbbbbbzzzzzzBBzzzzzzbbbbbbbbbbbbBBBBBBBByy    ",
"  yyOOBBBBBBbbbbbbbbbbbbzzzzzzBBzzzzzzbbbbbbbbbbbbBBBBBBOOyy    ",
"  yyOOBBBBBBbbbbbbbbbbbbzzzzzzBBzzzzzzbbbbbbbbbbbbBBBBBBOOyy    ",
"  yyOOOOBBBBbbbbbbbbbbbbzzzzzzBBzzzzzzbbbbbbbbbbbbBBBBOOOOyy    ",
"  yyOOOOBBBBbbbbbbbbbbbbzzzzzzBBzzzzzzbbbbbbbbbbbbBBBBOOOOyy    ",
"  yyOOOOOOBBbbbbbbbbbbbbzzzzzzBBzzzzzzbbbbbbbbbbbbBBOOOOOOyy    ",
"  yyOOOOOOBBbbbbbbbbbbbbzzzzzzBBzzzzzzbbbbbbbbbbbbBBOOOOOOyy    ",
"    yyOOOOOOOOOOOOOOOOOOzzzzzzBBzzzzzzOOOOOOOOOOOOOOOOOOyy      ",
"    yyOOOOOOOOOOOOOOOOOOzzzzzzBBzzzzzzOOOOOOOOOOOOOOOOOOyy      ",
"      yyOOOOOOOOOOOOOOOONNNNNNBBNNNNNNOOOOOOOOOOOOOOOOyy        ",
"      yyOOOOOOOOOOOOOOOONNNNNNBBNNNNNNOOOOOOOOOOOOOOOOyy        ",
"        yyyyyyyyyyyyyyyyyyyyyyyyyyyyyyyyyyyyyyyyyyyyyy          ",
"        yyyyyyyyyyyyyyyyyyyyyyyyyyyyyyyyyyyyyyyyyyyyyy          "
};
