/* XPM */
static char *_caac438727a45a792b7cfc7cf87f018NktTXDpjjY4slrhh[] = {
/* columns rows colors chars-per-pixel */
"64 64 54 1 ",
"  c None",
". c #4B5454",
"X c #4A5455",
"o c #4B5455",
"O c #4B5555",
"+ c #CA0400",
"@ c #CB0400",
"# c #CA0500",
"$ c #CB0500",
"% c #CA0401",
"& c #CB0401",
"* c #F41600",
"= c #F51600",
"- c #F41700",
"; c #F41601",
": c #F51601",
"> c #F41701",
", c #E15200",
"< c #E05300",
"1 c #E15300",
"2 c #E05301",
"3 c #E15301",
"4 c #FEE200",
"5 c #FFE200",
"6 c #FEE300",
"7 c #FEE201",
"8 c #FFE201",
"9 c #003682",
"0 c #013682",
"q c #003782",
"w c #013782",
"e c #003683",
"r c #013683",
"t c #003783",
"y c #2DDDC8",
"u c #2CDCC9",
"i c #2DDCC9",
"p c #2CDDC9",
"a c #2DDDC9",
"s c #969C9C",
"d c #979C9C",
"f c #979D9C",
"g c #969C9D",
"h c #979C9D",
"j c #969D9D",
"k c #ADFCDF",
"l c #ACFDDF",
"z c #FEFEFE",
"x c #FEFFFE",
"c c #FFFFFE",
"v c #FEFEFF",
"b c #FFFEFF",
"n c #FEFFFF",
"m c white",
/* pixels */
"                                                                ",
"                                                                ",
"          999999999999999999999999999999999999999999            ",
"          999999999999999999999999999999999999999999            ",
"        9944444444444444444444444444444444444444444499          ",
"        9944444444444444444444444444444444444444444499          ",
"      994444++++++++++++++++++++++++++++++++++++++444499        ",
"      994444++++++++++++++++++++++++++++++++++++++444499        ",
"    99441144++++++++++++++++++++++++++++++++++++++44114499      ",
"    99441144++++++++++++++++++++++++++++++++++++++44114499      ",
"  9944111144++++++++++++++++++++++++++++++++++++++4411114499    ",
"  9944111144++++++++++++++++++++++++++++++++++++++4411114499    ",
"  9911111144++++++++++++++++++++++++++++++++++++++441111114499  ",
"  9911111144++++++++++++++++++++++++++++++++++++++441111114499  ",
"  9911111144++++++++++++++++++++++++++++++++++++++441111114499  ",
"  9911111144++++++++++++++++++++++++++++++++++++++441111114499  ",
"  9911111144++++++++++++++++++++++++++++++++++++++441111114499  ",
"  9911111144++++++++++++++++++++++++++++++++++++++441111114499  ",
"  9911111144++++++++++++++++++++++++++++++++++++++441111114499  ",
"  9911111144++++++++++++++++++++++++++++++++++++++441111114499  ",
"  9911111144++++++++++++++**********++++++++++++++441111114499  ",
"  9911111144++++++++++++++**********++++++++++++++441111114499  ",
"  991111441144++++++++++****mmmmmm****++++++++++44114411114499  ",
"  991111441144++++++++++****mmmmmm****++++++++++44114411114499  ",
"  99114411111144++++++****mmmm**mmmm****++++++4411111144114499  ",
"  99114411111144++++++****mmmm**mmmm****++++++4411111144114499  ",
"  9944111111111144++****mmmm******mmmm****++4411111111114499    ",
"  9944111111111144++****mmmm******mmmm****++4411111111114499    ",
"  99111111111111**************mm**************11111111111199    ",
"  99111111111111**************mm**************11111111111199    ",
"  99mm11111111**********mmmm******mmmm**********11111111mm99    ",
"  99mm11111111**********mmmm******mmmm**********11111111mm99    ",
"  99mmmm1111**************mmmm**mmmm**************1111mmmm99    ",
"  99mmmm1111**************mmmm**mmmm**************1111mmmm99    ",
"  99mmmmmm11****************mmmmmm****************11mmmmmm99    ",
"  99mmmmmm11****************mmmmmm****************11mmmmmm99    ",
"  99mmmmmmmmgggggggggggggg**********ggggggggggggggmmmmmmmm99    ",
"  99mmmmmmmmgggggggggggggg**********ggggggggggggggmmmmmmmm99    ",
"  99mmmmmmmmggggggggggggaaaammmmmmaaaaggggggggggggmmmmmmmm99    ",
"  99mmmmmmmmggggggggggggaaaammmmmmaaaaggggggggggggmmmmmmmm99    ",
"  99mmmmmmmmggggggggggggaaaammmmmmaaaaggggggggggggmmmmmmmm99    ",
"  99mmmmmmmmggggggggggggaaaammmmmmaaaaggggggggggggmmmmmmmm99    ",
"  99mmmmmmmmggggggggggggaaaammmmmmaaaaggggggggggggmmmmmmmm99    ",
"  99mmmmmmmmggggggggggggaaaammmmmmaaaaggggggggggggmmmmmmmm99    ",
"  99mmmmmmmmggggaaaaggggaaaammmmmmaaaaggggaaaaggggmmmmmmmm99    ",
"  99mmmmmmmmggggaaaaggggaaaammmmmmaaaaggggaaaaggggmmmmmmmm99    ",
"  99mmmmmmmmggggaaaaggggaaaammmmmmaaaaggggaaaaggggmmmmmmmm99    ",
"  99mmmmmmmmggggaaaaggggaaaammmmmmaaaaggggaaaaggggmmmmmmmm99    ",
"  99mmmmmmmmggggggggggggaaaammmmmmaaaaggggggggggggmmmmmmmm99    ",
"  99mmmmmmmmggggggggggggaaaammmmmmaaaaggggggggggggmmmmmmmm99    ",
"  99mmmmmmmmggggggggggggaaaammmmmmaaaaggggggggggggmmmmmmmm99    ",
"  99mmmmmmmmggggggggggggaaaammmmmmaaaaggggggggggggmmmmmmmm99    ",
"  99oommmmmmggggggggggggaaaammmmmmaaaaggggggggggggmmmmmmoo99    ",
"  99oommmmmmggggggggggggaaaammmmmmaaaaggggggggggggmmmmmmoo99    ",
"  99oooommmmggggggggggggaaaammmmmmaaaaggggggggggggmmmmoooo99    ",
"  99oooommmmggggggggggggaaaammmmmmaaaaggggggggggggmmmmoooo99    ",
"  99oooooommggggggggggggaaaammmmmmaaaaggggggggggggmmoooooo99    ",
"  99oooooommggggggggggggaaaammmmmmaaaaggggggggggggmmoooooo99    ",
"    99ooooooooooooooooooaaaammmmmmaaaaoooooooooooooooooo99      ",
"    99ooooooooooooooooooaaaammmmmmaaaaoooooooooooooooooo99      ",
"      99ooooooooooooooookkkkmmmmmmkkkkoooooooooooooooo99        ",
"      99ooooooooooooooookkkkmmmmmmkkkkoooooooooooooooo99        ",
"        9999999999999999999999999999999999999999999999          ",
"        9999999999999999999999999999999999999999999999          "
};
