/* XPM */
static char *_5768808b22547a3c6855f4c02c2a2b6NxxlwsLA2I5ZDo2g[] = {
/* columns rows colors chars-per-pixel */
"64 64 66 1 ",
"  c None",
". c black",
"X c #010000",
"o c #000100",
"O c #4A5454",
"+ c #4B5454",
"@ c #4B5554",
"# c #4A5455",
"$ c #4B5455",
"% c #4A5555",
"& c #4B5555",
"* c #CA0400",
"= c #CB0400",
"- c #CA0500",
"; c #CB0500",
": c #CA0401",
"> c #CB0401",
", c #CA0501",
"< c #F41600",
"1 c #F51600",
"2 c #F41700",
"3 c #F41601",
"4 c #F51601",
"5 c #F41701",
"6 c #E15200",
"7 c #E05300",
"8 c #E15300",
"9 c #E05301",
"0 c #E15301",
"q c #FEE200",
"w c #FFE200",
"e c #FEE300",
"r c #FFE300",
"t c #FEE201",
"y c #FEE301",
"u c #003682",
"i c #013682",
"p c #003782",
"a c #013782",
"s c #003683",
"d c #013683",
"f c #003783",
"g c #2CDDC8",
"h c #2DDDC8",
"j c #2CDCC9",
"k c #2DDCC9",
"l c #2CDDC9",
"z c #2DDDC9",
"x c #969C9C",
"c c #979C9C",
"v c #969D9C",
"b c #969C9D",
"n c #979C9D",
"m c #969D9D",
"M c #979D9D",
"N c #ACFCDE",
"B c #ADFCDE",
"V c #ACFCDF",
"C c #ADFCDF",
"Z c #FFFEFE",
"A c #FEFFFE",
"S c #FFFFFE",
"D c #FEFEFF",
"F c #FFFEFF",
"G c #FEFFFF",
"H c white",
/* pixels */
"                                                                ",
"                                                                ",
"          uuuuuuuuuuuuuuuuuuuuuuuuuuuuuuuuuuuuuuuuuu            ",
"          uuuuuuuuuuuuuuuuuuuuuuuuuuuuuuuuuuuuuuuuuu            ",
"        uuqqqqqqqqqqqqqqqqqqqqqqqqqqqqqqqqqqqqqqqqqquu          ",
"        uuqqqqqqqqqqqqqqqqqqqqqqqqqqqqqqqqqqqqqqqqqquu          ",
"      uuqqqq**************************************qqqquu        ",
"      uuqqqq**************************************qqqquu        ",
"    uuqq88qq**************************************qq88qquu      ",
"    uuqq88qq**************************************qq88qquu      ",
"  uuqq8888qq**************************************qq8888qquu    ",
"  uuqq8888qq**************************************qq8888qquu    ",
"  uu888888qq**************************************qq888888qquu  ",
"  uu888888qq**************************************qq888888qquu  ",
"  uu888888qq**************************************qq888888qquu  ",
"  uu888888qq**************************************qq888888qquu  ",
"  uu888888qq**************************************qq888888qquu  ",
"  uu888888qq**************************************qq888888qquu  ",
"  uu888888qq**************************************qq888888qquu  ",
"  uu888888qq**************************************qq888888qquu  ",
"  uu888888qq**************3333333333**************qq888888qquu  ",
"  uu888888qq**************3333333333**************qq888888qquu  ",
"  uu8888qq88qq**********3333HHHHHH3333**********qq88qq8888qquu  ",
"  uu8888qq88qq**********3333HHHHHH3333**********qq88qq8888qquu  ",
"  uu88qq888888qq******3333HHHH33HHHH3333******qq888888qq88qquu  ",
"  uu88qq888888qq******3333HHHH33HHHH3333******qq888888qq88qquu  ",
"  uuqq8888888888qq**3333HHHH333333HHHH3333**qq8888888888qquu    ",
"  uuqq8888888888qq**3333HHHH333333HHHH3333**qq8888888888qquu    ",
"  uu88888888888833333333333333HH33333333333333888888888888uu    ",
"  uu88888888888833333333333333HH33333333333333888888888888uu    ",
"  uuHH888888883333333333HHHH333333HHHH333333333388888888HHuu    ",
"  uuHH888888883333333333HHHH333333HHHH333333333388888888HHuu    ",
"  uuHHHH888833333333333333HHHH33HHHH333333333333338888HHHHuu    ",
"  uuHHHH888833333333333333HHHH33HHHH333333333333338888HHHHuu    ",
"  uuHHHHHH883333333333333333HHHHHH333333333333333388HHHHHHuu    ",
"  uuHHHHHH883333333333333333HHHHHH333333333333333388HHHHHHuu    ",
"  uuHHHHHHHHbbbbbbbbbbbbbb3333333333bbbbbbbbbbbbbbHHHHHHHHuu    ",
"  uuHHHHHHHHbbbbbbbbbbbbbb3333333333bbbbbbbbbbbbbbHHHHHHHHuu    ",
"  uuHHHHHHHHbbbbbbbbbbbbjjjjjj..jjjjjjbbbbbbbbbbbbHHHHHHHHuu    ",
"  uuHHHHHHHHbbbbbbbbbbbbjjjjjj..jjjjjjbbbbbbbbbbbbHHHHHHHHuu    ",
"  uuHHHHHHHHbbbbbbbbbbbbjjjjjj..jjjjjjbbbbbbbbbbbbHHHHHHHHuu    ",
"  uuHHHHHHHHbbbbbbbbbbbbjjjjjj..jjjjjjbbbbbbbbbbbbHHHHHHHHuu    ",
"  uuHHHHHHHHbbbbbbbbbbbbjjjjjj..jjjjjjbbbbbbbbbbbbHHHHHHHHuu    ",
"  uuHHHHHHHHbbbbbbbbbbbbjjjjjj..jjjjjjbbbbbbbbbbbbHHHHHHHHuu    ",
"  uuHHHHHHHHbbbbjjjjbbbbjjjjjj..jjjjjjbbbbjjjjbbbbHHHHHHHHuu    ",
"  uuHHHHHHHHbbbbjjjjbbbbjjjjjj..jjjjjjbbbbjjjjbbbbHHHHHHHHuu    ",
"  uuHHHHHHHHbbbbjjjjbbbbjjjjjj..jjjjjjbbbbjjjjbbbbHHHHHHHHuu    ",
"  uuHHHHHHHHbbbbjjjjbbbbjjjjjj..jjjjjjbbbbjjjjbbbbHHHHHHHHuu    ",
"  uuHHHHHHHHbbbbbbbbbbbbjjjjjj..jjjjjjbnbbbbbbbbbbHHHHHHHHuu    ",
"  uuHHHHHHHHbbbbbbbbbbbbjjjjjj..jjjjjjbbbbbbbbbbbbHHHHHHHHuu    ",
"  uuHHHHHHHHbbbbbbbbbbbbjjjjjj..jjjjjjbbbbbbbbbbbbHHHHHHHHuu    ",
"  uuHHHHHHHHbbbbbbbbbbbbjjjjjj..jjjjjjbbbbbbbbbbbbHHHHHHHHuu    ",
"  uu##HHHHHHbbbbbbbbbbbbjjjjjj..jjjjjjbbbbbbbbbbbbHHHHHH##uu    ",
"  uu##HHHHHHbbbbbbbbbbbbjjjjjj..jjjjjjbbbbbbbbbbbbHHHHHH##uu    ",
"  uu####HHHHbbbbbbbbbbbbjjjjjj..jjjjjjbbbbbbbbbbbbHHHH####uu    ",
"  uu####HHHHbbbbbbbbbbbbjjjjjj..jjjjjjbbbbbbbbbbbbHHHH####uu    ",
"  uu######HHbbbbbbbbbbbbjjjjjj..jjjjjjbbbbbbbbbbbbHH######uu    ",
"  uu######HHbbbbbbbbbbbbjjjjjj..jjjjjjbbbbbbbbbbbbHH######uu    ",
"    uu##################jjjjjj..jjjjjj##################uu      ",
"    uu##################jjjjjj..jjjjjj##################uu      ",
"      uu################VVVVVV..VVVVVV################uu        ",
"      uu################VVVVVV..VVVVVV################uu        ",
"        uuuuuuuuuuuuuuuuuuuuuuuuuuuuuuuuuuuuuuuuuuuuuu          ",
"        uuuuuuuuuuuuuuuuuuuuuuuuuuuuuuuuuuuuuuuuuuuuuu          "
};
