/* XPM */
static char *c878975119054c3e87400b93fc0e0a2bFkRToMZB7j5XwhCS[] = {
/* columns rows colors chars-per-pixel */
"64 64 64 1 ",
"  c None",
". c #4A5454",
"X c #4B5454",
"o c #4B5554",
"O c #4A5455",
"+ c #4B5455",
"@ c #4B5555",
"# c #CA0400",
"$ c #CB0400",
"% c #CA0500",
"& c #CA0401",
"* c #CB0401",
"= c #CA0501",
"- c #F41600",
"; c #F51600",
": c #F41700",
"> c #F51700",
", c #F41601",
"< c #F51601",
"1 c #F41701",
"2 c #F51701",
"3 c #E05200",
"4 c #E15200",
"5 c #E05300",
"6 c #E15300",
"7 c #E05201",
"8 c #E15301",
"9 c #FEE200",
"0 c #FFE200",
"q c #FEE300",
"w c #FFE300",
"e c #FEE201",
"r c #FFE201",
"t c #FEE301",
"y c #003682",
"u c #013682",
"i c #003782",
"p c #013782",
"a c #003683",
"s c #013683",
"d c #003783",
"f c #2DDCC8",
"g c #2DDDC8",
"h c #2DDCC9",
"j c #2CDDC9",
"k c #2DDDC9",
"l c #969C9C",
"z c #979C9C",
"x c #969D9C",
"c c #979D9C",
"v c #969C9D",
"b c #979C9D",
"n c #969D9D",
"m c #979D9D",
"M c #ADFCDE",
"N c #ADFCDF",
"B c #FEFEFE",
"V c #FFFEFE",
"C c #FEFFFE",
"Z c #FFFFFE",
"A c #FEFEFF",
"S c #FFFEFF",
"D c #FEFFFF",
"F c white",
/* pixels */
"                                                                ",
"                                                                ",
"          iiiiiiiiiiiiiiiiiiiiiiiiiiiiiiiiiiiiiiiiii            ",
"          iiiiiiiiiiiiiiiiiiiiiiiiiiiiiiiiiiiiiiiiii            ",
"        iieeeeeeeeeeeeeeeeeeeeeeeeeeeeeeeeeeeeeeeeeeii          ",
"        iieeeeeeeeeeeeeeeeeeeeeeeeeeeeeeeeeeeeeeeeeeii          ",
"      iieeee%%%%%%%%%%%%%%%%%%%%%%%%%%%%%%%%%%%%%%eeeeii        ",
"      iieeee%%%%%%%%%%%%%%%%%%%%%%%%%%##%%%%%%%%%%eeeeii        ",
"    iiee66ee%%%%%%%%#%%%%%%%%%%%%%%%%%####%%%%%%%%ee66eeii      ",
"    iiee66ee%%%%%%%%#%%%%%%%%%%%%%%%%%#%#%%%%#%%%%ee66eeii      ",
"  iiee6666ee%%%%%%%%#%%%%%%%%%%%%%%%%%%%#%%%%%%%%%ee6666eeii    ",
"  iiee6666ee%%%%%%%%%%%%%%%%%%%%%%%%%%%%%%%%%%%%%%ee6666eeii    ",
"  ii666666ee%%%%%%%%%%%%%%%%%###%%%%%%%%%%%%%%%%%%ee666666eeii  ",
"  ii666666ee%%%%%%%%%%%%%%%%%%%#%%%%%%%%%%%%%%%%%%ee666666eeii  ",
"  ii666666ee%%%%%%%#%%%%%%%%%%%%%%##%%%%%%%%%%%%%%ee666666eeii  ",
"  ii666666ee%%%%%###%%%%%%%%%%%%%##%%%%#%%%%%%%%%%ee666666eeii  ",
"  ii666666ee%%%%%%%%%%%%%%%%%%%%%%%%%%%%%%%%%%%%%%ee666666eeii  ",
"  ii666666ee%%%%%%%%%%%%%%%%%%%%%%%%%%%%%%%#%%%%%%ee666666eeii  ",
"  ii666666ee%%%%##%%%%%%%#%%%%##%%%%%%%%%%#%%%%%%%ee666666eeii  ",
"  ii666666ee%%%%#%%%%%%%%%%%%%%#%%%%%%%%%%%#%%%%%%ee666666eeii  ",
"  ii666666ee%%%%%%%%##%%%%----------%%%%%%#%%%%%%%ee666666eeii  ",
"  ii666666ee%%%%%%%%%#%%%%----------%%%%%%%%%%%%%%ee666666eeii  ",
"  ii6666ee66ee%%%%%%%%%%----FFFFFF----%%%%%#%%%%ee66ee6666eeii  ",
"  ii6666ee66ee%%%%%%%%%%----FFFFFF----%%%%%%%%%%ee66ee6666eeii  ",
"  ii66ee666666ee%%%%%%----FFFF--FFFF----%%%%%%ee666666ee66eeii  ",
"  ii66ee666666ee%%%%%%----FFFF--FFFF----%%%%%%ee666666ee66eeii  ",
"  iiee6666666666ee%%----FFFF------FFFF----%%ee6666666666eeii    ",
"  iiee6666666666ee%%----FFFF------FFFF----%%ee6666666666eeii    ",
"  ii666666666666--------------FF--------------666666666666ii    ",
"  ii666666666666--------------FF--------------666666666666ii    ",
"  iiFF66666666----------FFFF------FFFF----------66666666FFii    ",
"  iiFF66666666----------FFFF------FFFF----------66666666FFii    ",
"  iiFFFF6666--------------FFFF--FFFF--------------6666FFFFii    ",
"  iiFFFF6666--------------FFFF--FFFF--------------6666FFFFii    ",
"  iiFFFFFF66----------------FFFFFF----------------66FFFFFFii    ",
"  iiFFFFFF66----------------FFFFFF----------------66FFFFFFii    ",
"  iiFFFFFFFFvvvvvvvvvvvvvv----------vvvvvvvvvvvvvvFFFFFFFFii    ",
"  iiFFFFFFFFvvvvvvvvvvvvvv----------vvvvvvvvvvvvvvFFFFFFFFii    ",
"  iiFFFFFFFFvvvvvvvvvvvvkkFFFFFFFFFFkkvvvvvvvvvvvvFFFFFFFFii    ",
"  iiFFFFFFFFvvvvvvvvvvvvkkFFFFFFFFFFkkvvvvvvvvvvvvFFFFFFFFii    ",
"  iiFFFFFFFFvvvvvvvvvvvvkkFFFFFFFFFFkkvvvvvvvvvvvvFFFFFFFFii    ",
"  iiFFFFFFFFvvvvvvvvvvvvkkFFFFFFFFFFkkvvvvvvvvvvvvFFFFFFFFii    ",
"  iiFFFFFFFFvvvvvvvvvvvvkkFFFFFFFFFFkkvvvvvvvvvvvvFFFFFFFFii    ",
"  iiFFFFFFFFvvvvvvvvvvvvkkFFFFFFFFFFkkvvvvvvvvvvvvFFFFFFFFii    ",
"  iiFFFFFFFFvvvvkkkkvvvvkkFFFFFFFFFFkkvvvvkkkkvvvvFFFFFFFFii    ",
"  iiFFFFFFFFvvvvkkkkvvvvkkFFFFFFFFFFkkvvvvkkkkvvvvFFFFFFFFii    ",
"  iiFFFFFFFFvvvvkkkkvvvvkkFFFFFFFFFFkkvvvvkkkkvvvvFFFFFFFFii    ",
"  iiFFFFFFFFvvvvkkkkvvvvkkFFFFFFFFFFkkvvvvkkkkvvvvFFFFFFFFii    ",
"  iiFFFFFFFFvvvvvvvvvvvvkkFFFFFFFFFFkkvvvvvvvvvvvvFFFFFFFFii    ",
"  iiFFFFFFFFvvvvvvvvvvvvkkFFFFFFFFFFkkvvvvvvvvvvvvFFFFFFFFii    ",
"  iiFFFFFFFFvvvvvvvvvvvvkkFFFFFFFFFFkkvvvvvvvvvvvvFFFFFFFFii    ",
"  iiFFFFFFFFvvvvvvvvvvvvkkFFFFFFFFFFkkvvvvvvvvvvvvFFFFFFFFii    ",
"  ii++FFFFFFvvvvvvvvvvvvkkFFFFFFFFFFkkvvvvvvvvvvvvFFFFFF++ii    ",
"  ii++FFFFFFvvvvvvvvvvvvkkFFFFFFFFFFkkvvvvvvvvvvvvFFFFFF++ii    ",
"  ii++++FFFFvvvvvvvvvvvvkkFFFFFFFFFFkkvvvvvvvvvvvvFFFF++++ii    ",
"  ii++++FFFFvvvvvvvvvvvvkkFFFFFFFFFFkkvvvvvvvvvvvvFFFF++++ii    ",
"  ii++++++FFvvvvvvvvvvvvkkFFFFFFFFFFkkvvvvvvvvvvvvFF++++++ii    ",
"  ii++++++FFvvvvvvvvvvvvkkFFFFFFFFFFkkvvvvvvvvvvvvFF++++++ii    ",
"    ii++++++++++++++++++kkFFFFFFFFFFkk++++++++++++++++++ii      ",
"    ii++++++++++++++++++kkFFFFFFFFFFkk++++++++++++++++++ii      ",
"      ii++++++++++++++++MMFFFFFFFFFFMM++++++++++++++++ii        ",
"      ii++++++++++++++++MMFFFFFFFFFFMM++++++++++++++++ii        ",
"        iiiiiiiiiiiiiiiiiiiiiiiiiiiiiiiiiiiiiiiiiiiiii          ",
"        iiiiiiiiiiiiiiiiiiiiiiiiiiiiiiiiiiiiiiiiiiiiii          "
};
