/* XPM */
static char *ddba0e8c067d465baae2990eed40decfqzPYueBAHvW7VCD8[] = {
/* columns rows colors chars-per-pixel */
"64 64 50 1 ",
"  c None",
". c black",
"X c #010000",
"o c #000100",
"O c #000001",
"+ c #2F0000",
"@ c #2E0001",
"# c #2F0001",
"$ c #2F0101",
"% c #5E1B0C",
"& c #5F1B0C",
"* c #5E1A0D",
"= c #5F1A0D",
"- c #5E1B0D",
"; c #5F1B0D",
": c #705B56",
"> c #715B56",
", c #FE1800",
"< c #FF1800",
"1 c #FE1900",
"2 c #FF1900",
"3 c #FF1801",
"4 c #FF1901",
"5 c #FE7E60",
"6 c #FF7E60",
"7 c #FE7F60",
"8 c #FF7F60",
"9 c #FE7E61",
"0 c #FF7E61",
"q c #FF7F61",
"w c #1216E0",
"e c #1316E0",
"r c #1217E0",
"t c #1317E0",
"y c #1216E1",
"u c #1316E1",
"i c #1317E1",
"p c #326AEE",
"a c #326BEE",
"s c #326BEF",
"d c #336BEF",
"f c #D000FA",
"g c #D100FA",
"h c #D001FA",
"j c #D101FA",
"k c #D000FB",
"l c #D100FB",
"z c #D001FB",
"x c #FFFEFE",
"c c white",
/* pixels */
"                        OOOOOOOOOOOOOO    OOOOOOOOOO            ",
"                        OOOOOOOOOOOOOO    OOOOOOOOOO            ",
"                    OOOO22222222222222OOOO22222222OO            ",
"                    OOOO22222222222222OOOO22222222OO            ",
"                  OO2222222222cccccc222222OO222222OO            ",
"                  OO2222222222cccccc222222OO222222OO            ",
"                OO2222222222222222cc22222222OO22OO              ",
"                OO2222222222222222cc22222222OO22OO              ",
"                OO22222222222222222222222222OOOO                ",
"                OO22222222222222222222222222OOOO                ",
"                OOOOOOOOOOOOOOOOOOOOOOOOOOOOOO                  ",
"                OOOOOOOOOOOOOOOOOOOOOOOOOOOOOO                  ",
"                6666666666666666666666666666                    ",
"                6666666666666666666666666666                    ",
"                666666OOcc66666666OOcc666666                    ",
"                666666OOcc66666666OOcc666666                    ",
"                6666666666666666666666666666                    ",
"                6666666666666666666666666666                    ",
"                  66666666666666666666666666                    ",
"                  66666666666666666666666666                    ",
"                  66666666666666666666666666                    ",
"                  66666666666666666666666666                    ",
"                    666666OOOOOOOO66666666                      ",
"                    666666OOOOOOOO66666666                      ",
"                    ee66666666666666666666eeeeee66666666666666  ",
"                    ee66666666666666666666eeeeee66666666666666  ",
"                    eeee6666666666666666OOeeeeee66666666666666  ",
"                    eeee6666666666666666OOeeeeee66666666666666  ",
"                  eeeeeeeeee666666eeeeeeOOeeeeee6666666666      ",
"                  eeeeeeeeee666666eeeeeeOOeeeeee6666666666      ",
"                OOeeeeeeeeeeeeeeeeeeeeOOOOeeeeee                ",
"                OOeeeeeeeeeeeeeeeeeeeeOOOOeeeeee                ",
"                OOOOeeeeeeeeeeeeeeeeeeOOeeeeeeee                ",
"                OOOOeeeeeeeeeeeeeeeeeeOOeeeeeeee                ",
"              eeeeOOeeeeaaeeeeeeeeeeeeOOeeeeee                  ",
"              eeeeOOeeeeaaeeeeeeeeeeeeOOeeeeee                  ",
"            eeeeOOeeeeeeeeeeeeaaaaeeeeOOeeeeee                  ",
"            eeeeOOeeeeeeeeeeeeaaaaeeeeOOeeeeee                  ",
"            eeeeOOOOeeeeeeeeeeeeaaaaeeOOeeeeee                  ",
"            eeeeOOOOeeeeeeeeeeeeaaaaeeOOeeeeee                  ",
"            66eeOOeeeeeeeeeeeeeeeeaaeeOOee                      ",
"            66eeOOeeeeeeeeeeeeeeeeaaeeOOee                      ",
"            6666OOeeeeeeaaeeeeeeeeeeeeOOee                      ",
"            6666OOeeeeeeaaeeeeeeeeeeeeOOee                      ",
"            6666OOeeeeeeeeeeeeeeeeeeeeeeOO                      ",
"            6666OOeeeeeeeeeeeeeeeeeeeeeeOO                      ",
"                OO&&&&&&&&OO::::OO&&&&&&&&                      ",
"                OO&&&&&&&&OO::::OO&&&&&&&&                      ",
"                  &&&&&&&&OOOOOOOO&&&&&&&&                      ",
"                  &&&&&&&&OOOOOOOO&&&&&&&&                      ",
"                  ffffffffffffffffffffffff                      ",
"                  ffffffffffffffffffffffff                      ",
"                  ffffffffffffffffffffffff                      ",
"                  ffffffffffffffffffffffff                      ",
"                  ffffffff        ffffffff                      ",
"                  ffffffff        ffffffff                      ",
"                  ffffffff        ffffffff                      ",
"                  ffffffff        ffffffff                      ",
"                  ffffffff        ffffffff                      ",
"                  ffffffff        ffffffff                      ",
"              ############        ############                  ",
"              ############        ############                  ",
"              ############        ############                  ",
"              ############        ############                  "
};
