/* XPM */
static char *_17eda4e2d324a8a9fb25528f4bae040nuHrbG4NHjKE913D[] = {
/* columns rows colors chars-per-pixel */
"64 64 53 1 ",
"  c None",
". c black",
"X c #010000",
"o c #000100",
"O c #010100",
"+ c #000001",
"@ c #010001",
"# c #000101",
"$ c #010101",
"% c #2F0000",
"& c #2E0001",
"* c #2F0001",
"= c #2F0101",
"- c #5F1A0C",
"; c #5F1B0C",
": c #5F1B0D",
"> c #715B56",
", c #FE0000",
"< c red",
"1 c #FE0001",
"2 c #FF0001",
"3 c #FF1800",
"4 c #FE1900",
"5 c #FF1900",
"6 c #FF1801",
"7 c #FF1901",
"8 c #FE7E60",
"9 c #FF7E60",
"0 c #FE7F60",
"q c #FF7F60",
"w c #FE7E61",
"e c #FF7E61",
"r c #FF7F61",
"t c #1216E0",
"y c #1316E0",
"u c #1317E0",
"i c #1216E1",
"p c #1316E1",
"a c #1217E1",
"s c #1317E1",
"d c #326BEE",
"f c #336BEE",
"g c #326BEF",
"h c #D000FA",
"j c #D100FA",
"k c #D001FA",
"l c #D000FB",
"z c #D100FB",
"x c #D001FB",
"c c #D101FB",
"v c #FFFEFF",
"b c #FEFFFF",
"n c white",
/* pixels */
"                        XXXXXXXXXXXXXX    XXXXXXXXXX            ",
"                        XXXXXXXXXXXXXX    XXXXXXXXXX            ",
"                    XXXX44444444444444XXXX44444444XX            ",
"                    XXXX44444444444444XXXX44444444XX            ",
"                  XX4444444444nnnnnn444444XX444444XX            ",
"                  XX4444444444nnnnnn444444XX444444XX            ",
"                XX4444444444444444nn44444444XX44XX              ",
"                XX4444444444444444nn44444444XX44XX              ",
"                XX44444444444444444444444444XXXX                ",
"                XX44444444444444444444444444XXXX                ",
"                XXXXXXXXXXXXXXXXXXXXXXXXXXXXXX                  ",
"                XXXXXXXXXXXXXXXXXXXXXXXXXXXXXX                  ",
"                9999999999999999999999999999                    ",
"                9999999999999999999999999999                    ",
"                999999XXnn99999999XXnn999999                    ",
"                999999XXnn99999999XXnn999999                    ",
"                9999999999999999999999999999                    ",
"                9999999999999999999999999999                    ",
"                  99999999999999999999999999                    ",
"                  99999999999999999999999999                    ",
"                  99999999999999999999999999                    ",
"                  99999999999999999999999999                    ",
"                    999999XXXXXXXX99999999                      ",
"                    999999XXXXXXXX99999999                      ",
"                    yy99999999999999999999yyyyyy99999999999999  ",
"                    yy99999999999999999999yyyyyy99999999999999  ",
"                    yyyy9999999999999999XXyyyyyy99999999999999  ",
"                    yyyy9999999999999999XXyyyyyy99999999999999  ",
"                  yyyyyyyyyy999999yyyyyyXXyyyyyy9999999999      ",
"                  yyyyyyyyyy999999yyyyyyXXyyyyyy9999999999      ",
"                XXyyyyyyyyyyyyyyyyyyyyXXXXyyyyyy                ",
"                XXyyyyyyyyyyyyyyyyyyyyXXXXyyyyyy                ",
"                XXXXyyyyyyyyyyyyyyyyyyXXyyyyyyyy                ",
"                XXXXyyyyyyyyyyyyyyyyyyXXyyyyyyyy                ",
"              yyyyXXyyyyddyyyyyyyyyyyyXXyyyyyy                  ",
"              yyyyXXyyyyddyyyyyyyyyyyyXXyyyyyy                  ",
"            yyyyXXyyyyyyyyyyyyddddyyyyXXyyyyyy                  ",
"            yyyyXXyyyyyyyyyyyyddddyyyyXXyyyyyy                  ",
"            yyyyXXXXyyyyyyyyyyyyddddyyXXyyyyyy                  ",
"            yyyyXXXXyyyyyyyyyyyyddddyyXXyyyyyy                  ",
"            99yyXXyyXXXXXXyyyyyyyyddyyXXyy                      ",
"            99yyXXyyXXXXXXyyyyyyyyddyyXXyy                      ",
"            9999XXXX<<<<<<XXyyyyyyyyyyXXyy                      ",
"            9999XXXX<<<<<<XXyyyyyyyyyyXXyy                      ",
"            9999XX<<<<XX<<<<XXyyyyyyyyyyXX                      ",
"            9999XX<<<<XX<<<<XXyyyyyyyyyyXX                      ",
"                XXXXXXnnXXXXXX>>XX::::::::                      ",
"                XXXXXXnnXXXXXX>>XX::::::::                      ",
"                XXnnnnXXnnnnXXXXXX::::::::                      ",
"                XXnnnnXXnnnnXXXXXX::::::::                      ",
"                  XXnnnnnnXXhhhhhhhhhhhhhh                      ",
"                  XXnnnnnnXXhhhhhhhhhhhhhh                      ",
"                  hhXXXXXXhhhhhhhhhhhhhhhh                      ",
"                  hhXXXXXXhhhhhhhhhhhhhhhh                      ",
"                  hhhhhhhh        hhhhhhhh                      ",
"                  hhhhhhhh        hhhhhhhh                      ",
"                  hhhhhhhh        hhhhhhhh                      ",
"                  hhhhhhhh        hhhhhhhh                      ",
"                  hhhhhhhh        hhhhhhhh                      ",
"                  hhhhhhhh        hhhhhhhh                      ",
"              %%%%%%%%%%%%        %%%%%%%%%%%%                  ",
"              %%%%%%%%%%%%        %%%%%%%%%%%%                  ",
"              %%%%%%%%%%%%        %%%%%%%%%%%%                  ",
"              %%%%%%%%%%%%        %%%%%%%%%%%%                  "
};
