/* XPM */
static char *_18d3c8ffa06467ca1f3b11443de1f83skbYVLrkaIRD8Dg7[] = {
/* columns rows colors chars-per-pixel */
"64 64 43 1 ",
"  c None",
". c #220E00",
"X c #230E00",
"o c #220F00",
"O c #230F00",
"+ c #220E01",
"@ c #230E01",
"# c #220F01",
"$ c #005000",
"% c #015000",
"& c #005100",
"* c #005001",
"= c #015001",
"- c #005101",
"; c #007600",
": c #017600",
"> c #007700",
", c #017700",
"< c #007601",
"1 c #017601",
"2 c #008C00",
"3 c #008D00",
"4 c #018D00",
"5 c #008C01",
"6 c #008D01",
"7 c #018D01",
"8 c #009000",
"9 c #009100",
"0 c #019100",
"q c #009101",
"w c #00B200",
"e c #01B200",
"r c #00B300",
"t c #01B300",
"y c #00B201",
"u c #00B301",
"i c #00C200",
"p c #00C300",
"a c #00C201",
"s c #00C301",
"d c #57EC72",
"f c #57ED72",
"g c #57EC73",
/* pixels */
"                333333333333                                    ",
"                333333333333                                    ",
"          333333rrrr;;rrrr3333333333                            ",
"          333333rrrr;;rrrr3333333333                            ",
"      3333;;;;rrrrrrrrrrrrrrrrrrrr3333                          ",
"      3333;;;;rrrrrrrrrrrrrrrrrrrr3333                          ",
"    %%;;;;rrrrrrrrrrrr33rrrrrrrrrrrr3333                        ",
"    %%;;;;rrrrrrrrrrrr33rrrrrrrrrrrr3333                        ",
"    %%;;rrrr;;;;;;;;rr33;;ss;;;;rrrrdd33333333                  ",
"    %%;;rrrr;;;;;;;;rr33;;ss;;;;rrrrdd33333333                  ",
"    %%;;333333333333rr33;;9999;;;;rr33333333333333              ",
"    %%;;333333333333rr33;;9999;;;;rr33333333333333              ",
"    %%ss3333;;;;;;333333;;9999;;rr33rrrrrrrrrrrr3333            ",
"    %%ss3333;;;;;;333333;;9999;;rr33rrrrrrrrrrrr3333            ",
"  %%33333333dd99;;;;rr339999;;;;rrrr333333rrrrrrrr3333          ",
"  %%33333333dd99;;;;rr339999;;;;rrrr333333rrrrrrrr3333          ",
"333333333333999999;;;;339999ddrrrrrrssrr;;;;;;rrrrrr33          ",
"333333333333999999;;;;339999ddrrrrrrssrr;;;;;;rrrrrr33          ",
"33;;;;33333333%%999999999999;;rr33rrrrrr;;rrrrrr;;rr3333        ",
"33;;;;33333333%%999999999999;;rr33rrrrrr;;rrrrrr;;rr3333        ",
"33;;;;;;%%;;;;;;999999dd999999;;rrrr3333rrrrrr;;rrrrrr33        ",
"33;;;;;;%%;;;;;;999999dd999999;;rrrr3333rrrrrr;;rrrrrr33        ",
"%%;;;;;;%%ssss%%;;;;;;;;99999999;;rrrr3333rrddrrrrrrrr;;        ",
"%%;;;;;;%%ssss%%;;;;;;;;99999999;;rrrr3333rrddrrrrrrrr;;        ",
"%%;;;;ss%%;;;;%%ss%%%%;;;;..99999933rrrrrr33dd33;;rrrr;;        ",
"%%;;;;ss%%;;;;%%ss%%%%;;;;..99999933rrrrrr33dd33;;rrrr;;        ",
"%%%%%%;;;;;;;;;;;;;;;;;;;;..999999rrrr;;;;3333rr;;;;;;;;        ",
"%%%%%%;;;;;;;;;;;;;;;;;;;;..999999rrrr;;;;3333rr;;;;;;;;        ",
"  %%%%;;;;;;%%;;;;;;;;%%;;..993399;;;;;;rr3333dd33333333;;      ",
"  %%%%;;;;;;%%;;;;;;;;%%;;..993399;;;;;;rr3333dd33333333;;      ",
"    %%;;;;;;;;dd;;;;;;;;;;..993399999999....;;dd3333333333      ",
"    %%;;;;;;;;dd;;;;;;;;;;..993399999999....;;dd3333333333      ",
"    %%%%;;;;;;;;..;;;;;;;;..99999999........333333;;333333      ",
"    %%%%;;;;;;;;..;;;;;;;;..99999999........333333;;333333      ",
"      %%;;;;;;;;....;;;;;;....9999......3333;;;;33;;333333      ",
"      %%;;;;;;;;....;;;;;;....9999......3333;;;;33;;333333      ",
"      %%%%%%;;;;;;....;;;;;;..99....33;;;;;;33333333;;;;;;      ",
"      %%%%%%;;;;;;....;;;;;;..99....33;;;;;;33333333;;;;;;      ",
"        %%%%%%%%%%%%....;;;;......33%%;;33;;;;;;;;%%33%%        ",
"        %%%%%%%%%%%%....;;;;......33%%;;33;;;;;;;;%%33%%        ",
"            %%%%%%%%%%............%%%%%%;;;;;;;;%%%%%%%%        ",
"            %%%%%%%%%%............%%%%%%;;;;;;;;%%%%%%%%        ",
"                    ....................%%%%%%%%%%%%%%          ",
"                    ....................%%%%%%%%%%%%%%          ",
"                    ....................                        ",
"                    ....................                        ",
"                    ....................                        ",
"                    ....................                        ",
"                  ......................                        ",
"                  ......................                        ",
"                  ........................                      ",
"                  ........................                      ",
"                  ........................                      ",
"                  ........................                      ",
"                ..........................                      ",
"                ..........................                      ",
"              ..............................                    ",
"              ..............................                    ",
"              ................................                  ",
"              ................................                  ",
"            ....................................                ",
"            ....................................                ",
"          ........................................              ",
"          ........................................              "
};
